<svg xmlns="http://www.w3.org/2000/svg" viewBox="0 0 64 64" role="img" aria-labelledby="title">
  <title>嘉義活水貴格會場地借用</title>
  <defs>
    <linearGradient id="flame" x1="32" x2="32" y1="4" y2="60" gradientUnits="userSpaceOnUse">
      <stop offset="0" stop-color="#ffe711" />
      <stop offset="0.45" stop-color="#f7b810" />
      <stop offset="1" stop-color="#e85a2d" />
    </linearGradient>
  </defs>
  <path fill="url(#flame)" d="M32 4c6 5 9 11 9 18 0 5-2 10-5 15l13-14c0 6 2 10 5 15 3 5 5 10 5 16 0 11-6 18-17 22-2 5-6 8-10 14-4-6-8-9-10-14C11 72 5 65 5 54c0-9 4-16 9-23l4-7c0 8-2 14-4 20-1 3-1 6 1 9 4 5 9 8 16 9-6-4-10-10-11-18-1-8 2-15 7-22 4-5 8-10 8-18Z"/>
  <path fill="#ffffff" d="M33 13c3 7 1 14-2 20-3 5-7 10-9 16-2 5-2 10 0 15 3 7 8 11 16 14-7 1-13 0-18-3-7-4-11-10-13-17-2-9 1-17 5-24 3-5 7-10 11-14 4-5 8-10 10-17Z"/>
  <path fill="#ffffff" d="M44 26c-1 5-4 8-7 11-2 2-4 5-7 8-2 2-3 1-4-1-1-3 0-6 2-8 2-4 5-7 7-10 3-3 6-6 9-8Z"/>
  <path fill="#ffffff" d="M45 40c4 4 7 9 7 14 0 5-2 9-6 13-5 4-10 6-17 4-3-1-5 0-5 4-1 4 1 8 3 11-7-2-12-5-16-10-4-3-6-8-5-13 0-5 3-9 7-12 4-3 8-4 13-6 8-1 14-5 19-11Z"/>
</svg>
