<svg version="1.1" id="Layer_1" xmlns="http://www.w3.org/2000/svg" xmlns:xlink="http://www.w3.org/1999/xlink" x="0px" y="0px"
	 width="100%" viewBox="0 0 251 362" enable-background="new 0 0 251 362" xml:space="preserve">
<path fill="#F5AF19" opacity="1.000000" stroke="none" 
	d="
M157.166290,157.997772 
	C157.119919,155.295090 157.073532,152.592422 157.554321,149.444641 
	C189.387650,148.999695 220.693832,148.999847 252.000000,149.000000 
	C252.000000,150.714142 252.000000,152.428268 252.000000,154.571198 
	C251.656509,155.768173 251.313019,156.536331 250.444244,157.651871 
	C219.001389,157.998749 188.083832,157.998260 157.166290,157.997772 
z"/>
<path fill="#F6B314" opacity="1.000000" stroke="none" 
	d="
M252.000000,148.666672 
	C220.693832,148.999847 189.387650,148.999695 157.624100,148.999054 
	C157.445129,146.926682 157.723541,144.854813 158.541718,142.391205 
	C189.665482,141.999207 220.249451,141.998932 250.833435,141.998657 
	C250.986465,143.555038 251.139496,145.111404 251.646271,146.833893 
	C252.000000,147.444443 252.000000,147.888901 252.000000,148.666672 
z"/>
<path fill="#FFED14" opacity="1.000000" stroke="none" 
	d="
M135.536819,1.000001 
	C141.563766,3.308721 147.174484,5.513515 152.661667,7.991791 
	C154.233444,8.701677 155.447830,10.202806 156.542084,11.671731 
	C139.131744,11.989096 122.005424,11.975859 104.879105,11.962622 
	C109.390083,6.073768 115.500893,2.958775 122.839966,1.347957 
	C127.024544,1.000000 131.049088,1.000000 135.536819,1.000001 
z"/>
<path fill="#F7B810" opacity="1.000000" stroke="none" 
	d="
M1.000000,141.250000 
	C1.342672,138.944000 1.685345,136.888000 2.554904,134.415680 
	C21.092794,133.986008 39.103802,133.972672 57.114807,133.959335 
	C57.749866,136.363297 58.384926,138.767258 58.593990,141.578781 
	C39.111996,141.990906 20.055998,141.995453 1.000000,142.000000 
	C1.000000,142.000000 1.000000,141.500000 1.000000,141.250000 
z"/>
<path fill="#F5AF19" opacity="1.000000" stroke="none" 
	d="
M61.833015,148.998535 
	C62.810654,150.773926 63.788288,152.549316 64.397217,154.725159 
	C61.925365,155.417267 59.823101,155.954651 57.718952,155.962128 
	C39.201241,156.027847 20.683195,155.999237 2.165249,155.998550 
	C2.005419,154.764999 1.845589,153.531448 1.342880,152.148956 
	C1.000000,151.250000 1.000000,150.500000 1.468657,149.375000 
	C21.902548,148.999512 41.867783,148.999023 61.833015,148.998535 
z"/>
<path fill="#F6B314" opacity="1.000000" stroke="none" 
	d="
M61.892288,148.637085 
	C41.867783,148.999023 21.902548,148.999512 1.468657,149.000000 
	C1.000000,146.958328 1.000000,144.916672 1.000000,142.437500 
	C20.055998,141.995453 39.111996,141.990906 58.645035,141.975800 
	C60.065235,144.068695 61.008400,146.172165 61.892288,148.637085 
z"/>
<path fill="#FBCD01" opacity="1.000000" stroke="none" 
	d="
M157.124847,80.035660 
	C156.751358,81.422401 156.377869,82.809151 155.691406,84.682068 
	C155.327530,85.615967 155.276657,86.063683 155.225784,86.511398 
	C155.695221,86.240540 156.164658,85.969681 156.634094,85.698822 
	C162.186859,80.205650 167.739639,74.712471 173.986023,69.254410 
	C176.287354,69.526443 177.894348,69.963028 179.502838,69.968597 
	C192.038895,70.012001 204.575241,69.972504 217.111496,69.958603 
	C223.643417,81.391418 230.176575,92.823517 236.699600,104.261398 
	C236.854263,104.532600 236.895370,104.868553 236.736359,105.849945 
	C234.680191,106.683723 232.877228,106.978439 231.074036,106.979813 
	C196.104568,107.006485 161.135101,106.998863 126.165634,106.998291 
	C127.777863,98.265785 129.390091,89.533279 131.541168,80.400841 
	C140.428314,80.012489 148.776581,80.024071 157.124847,80.035660 
z"/>
<path fill="#EB712E" opacity="1.000000" stroke="none" 
	d="
M222.120117,262.037109 
	C218.968704,265.967346 215.817291,269.897583 212.074402,273.651978 
	C210.178574,273.317444 208.874313,273.020508 207.569901,273.019928 
	C154.240219,272.996643 100.910522,272.990692 47.580883,273.046570 
	C46.037163,273.048187 44.494164,273.740112 42.950829,274.110199 
	C39.357307,270.294342 35.763786,266.478485 32.456085,262.330109 
	C35.857143,261.665070 38.972092,261.045685 42.087658,261.042542 
	C99.319283,260.984375 156.550995,260.985504 213.782608,261.044098 
	C216.562103,261.046936 219.340958,261.691437 222.120117,262.037109 
z"/>
<path fill="#EC762E" opacity="1.000000" stroke="none" 
	d="
M222.439209,261.886902 
	C219.340958,261.691437 216.562103,261.046936 213.782608,261.044098 
	C156.550995,260.985504 99.319283,260.984375 42.087658,261.042542 
	C38.972092,261.045685 35.857143,261.665070 32.310631,262.017029 
	C30.002230,259.254150 28.125099,256.471863 26.610229,253.282425 
	C29.086720,252.583527 31.199362,252.053467 33.315445,252.039352 
	C45.447323,251.958420 57.580215,252.033340 69.712227,251.962860 
	C71.465431,251.952667 73.215736,251.443970 74.967392,251.165955 
	C80.347687,253.884705 85.727974,256.603455 91.032623,259.283966 
	C92.896660,256.311340 94.254753,254.145538 96.410156,251.909851 
	C99.365883,251.893295 101.524292,251.992661 103.682732,251.993195 
	C144.732986,252.003479 185.783234,252.002121 226.833481,252.003174 
	C225.475098,255.247665 224.116714,258.492157 222.439209,261.886902 
z"/>
<path fill="#FDD204" opacity="1.000000" stroke="none" 
	d="
M157.436279,79.860275 
	C148.776581,80.024071 140.428314,80.012489 131.622406,80.002007 
	C131.018753,79.419113 130.872711,78.835121 130.660141,77.985077 
	C129.849503,78.734917 129.266129,79.274536 128.003922,79.763107 
	C125.540138,79.474617 123.756767,79.046852 121.969963,79.032021 
	C113.334648,78.960335 104.697670,79.058502 96.063133,78.949646 
	C94.354095,78.928093 92.653175,78.262268 90.948517,77.893555 
	C95.498604,71.217087 100.099983,64.574516 104.554390,57.834808 
	C105.418602,56.527206 105.709679,54.840816 107.053070,53.156521 
	C127.170853,52.991077 146.500687,52.998260 165.830521,53.005444 
	C163.136261,61.898594 160.441986,70.791740 157.436279,79.860275 
z"/>
<path fill="#EC7C2E" opacity="1.000000" stroke="none" 
	d="
M226.918564,251.599854 
	C185.783234,252.002121 144.732986,252.003479 103.682732,251.993195 
	C101.524292,251.992661 99.365883,251.893295 96.679886,251.730011 
	C101.970955,237.934387 108.840652,237.373566 123.747581,240.350708 
	C130.099548,241.619293 136.493683,243.838745 142.831345,243.715057 
	C150.309265,243.569138 157.984695,242.106201 164.912354,237.362610 
	C167.321060,237.682968 169.122391,237.976089 170.924255,237.979309 
	C190.227112,238.013855 209.530029,238.002548 228.832932,238.003830 
	C228.223175,242.401398 227.613419,246.798965 226.918564,251.599854 
z"/>
<path fill="#EA692F" opacity="1.000000" stroke="none" 
	d="
M64.951508,291.111938 
	C59.692719,287.296265 54.433926,283.480591 49.506367,279.340759 
	C100.368294,279.011200 150.898987,279.002350 201.429672,279.014343 
	C203.251770,279.014771 205.073837,279.220337 206.895920,279.330292 
	C201.825943,283.160248 196.755981,286.990234 191.084793,290.648499 
	C189.512619,290.318146 188.541763,290.021271 187.570724,290.020691 
	C148.073914,289.997101 108.577057,289.989014 69.080307,290.046814 
	C67.703522,290.048828 66.327751,290.741272 64.951508,291.111938 
z"/>
<path fill="#FBCD01" opacity="1.000000" stroke="none" 
	d="
M90.642883,78.034187 
	C92.653175,78.262268 94.354095,78.928093 96.063133,78.949646 
	C104.697670,79.058502 113.334648,78.960335 121.969963,79.032021 
	C123.756767,79.046852 125.540138,79.474617 127.716095,79.881592 
	C119.982254,89.288834 111.857399,98.526543 102.947945,107.890457 
	C91.164490,108.011108 80.165634,108.005554 69.166779,108.000000 
	C72.978081,95.754547 81.237724,86.666603 90.642883,78.034187 
z"/>
<path fill="#F0932E" opacity="1.000000" stroke="none" 
	d="
M60.951584,209.109436 
	C47.403137,205.703415 35.365265,199.236298 24.439327,190.640076 
	C27.428604,189.867569 30.187307,189.074509 32.950638,189.058060 
	C51.577156,188.947144 70.204651,189.000870 88.831833,189.001282 
	C93.464745,194.434799 98.097656,199.868317 102.606453,205.913757 
	C90.903069,206.683640 79.320503,206.734619 67.747330,207.090714 
	C65.463539,207.160995 63.215900,208.406128 60.951584,209.109436 
z"/>
<path fill="#EA6C2E" opacity="1.000000" stroke="none" 
	d="
M207.148529,279.181396 
	C205.073837,279.220337 203.251770,279.014771 201.429672,279.014343 
	C150.898987,279.002350 100.368294,279.011200 49.361313,279.029358 
	C46.996525,277.599304 45.108028,276.156494 43.085182,274.411926 
	C44.494164,273.740112 46.037163,273.048187 47.580883,273.046570 
	C100.910522,272.990692 154.240219,272.996643 207.569901,273.019928 
	C208.874313,273.020508 210.178574,273.317444 211.767517,273.791565 
	C210.501785,275.748779 208.951462,277.390656 207.148529,279.181396 
z"/>
<path fill="#E85E2E" opacity="1.000000" stroke="none" 
	d="
M181.114182,298.041809 
	C176.971451,301.301331 172.828705,304.560852 168.084015,307.648224 
	C166.677765,307.318451 165.873581,307.023895 165.069107,307.023102 
	C139.906616,306.997986 114.744072,306.986115 89.581718,307.047729 
	C88.370689,307.050690 87.161339,307.739655 85.951202,308.109161 
	C82.297371,305.057922 78.643532,302.006683 75.219696,298.611267 
	C77.861763,297.844696 80.272820,297.061523 82.686043,297.054810 
	C112.723526,296.971008 142.761398,296.972748 172.798950,297.045380 
	C175.571472,297.052094 178.342468,297.694550 181.114182,298.041809 
z"/>
<path fill="#F4A91D" opacity="1.000000" stroke="none" 
	d="
M2.097941,156.395523 
	C20.683195,155.999237 39.201241,156.027847 57.718952,155.962128 
	C59.823101,155.954651 61.925365,155.417267 64.431793,155.063950 
	C65.561478,155.542343 66.287865,156.082397 67.545921,156.311401 
	C73.330002,156.000214 78.582405,156.000092 83.834816,155.999985 
	C83.878014,159.394394 83.921211,162.788788 83.441238,166.590912 
	C59.337208,166.998886 35.756256,166.972687 12.175608,167.044983 
	C10.080785,167.051407 7.987927,167.698792 5.894156,168.048492 
	C4.606315,164.296478 3.318474,160.544495 2.097941,156.395523 
z"/>
<path fill="#EE832E" opacity="1.000000" stroke="none" 
	d="
M228.902710,237.585846 
	C209.530029,238.002548 190.227112,238.013855 170.924255,237.979309 
	C169.122391,237.976089 167.321060,237.682968 165.235489,237.208740 
	C169.252213,232.139130 173.552917,227.385223 178.413177,222.378998 
	C194.045685,222.201797 209.118607,222.279297 224.191635,222.335098 
	C224.496063,222.336227 224.801437,222.084076 225.106369,221.950104 
	C226.395065,227.022675 227.683762,232.095276 228.902710,237.585846 
z"/>
<path fill="#E9632E" opacity="1.000000" stroke="none" 
	d="
M181.465424,298.016907 
	C178.342468,297.694550 175.571472,297.052094 172.798950,297.045380 
	C142.761398,296.972748 112.723526,296.971008 82.686043,297.054810 
	C80.272820,297.061523 77.861763,297.844696 74.884445,298.421753 
	C71.304207,296.288818 68.289238,294.001221 65.112885,291.412781 
	C66.327751,290.741272 67.703522,290.048828 69.080307,290.046814 
	C108.577057,289.989014 148.073914,289.997101 187.570724,290.020691 
	C188.541763,290.021271 189.512619,290.318146 190.768066,290.792328 
	C187.973923,293.402588 184.895294,295.697296 181.465424,298.016907 
z"/>
<path fill="#F7B810" opacity="1.000000" stroke="none" 
	d="
M250.900101,141.601242 
	C220.249451,141.998932 189.665482,141.999207 158.624084,141.999054 
	C159.053452,139.222137 159.940262,136.445648 161.453995,133.334427 
	C190.998688,132.999359 219.916443,132.999023 248.834198,132.998672 
	C249.545059,135.733719 250.255920,138.468781 250.900101,141.601242 
z"/>
<path fill="#F4A91D" opacity="1.000000" stroke="none" 
	d="
M157.097809,158.394714 
	C188.083832,157.998260 219.001389,157.998749 250.376328,157.998505 
	C250.284088,160.435867 249.734451,162.873978 248.551804,165.655548 
	C218.241043,166.013428 188.563293,166.027847 158.885544,166.042282 
	C158.266815,163.625397 157.648071,161.208527 157.097809,158.394714 
z"/>
<path fill="#FBC803" opacity="1.000000" stroke="none" 
	d="
M126.094727,107.394264 
	C161.135101,106.998863 196.104568,107.006485 231.074036,106.979813 
	C232.877228,106.978439 234.680191,106.683723 236.769196,106.211411 
	C238.371796,108.015976 239.688461,110.134712 240.586639,112.619682 
	C218.740067,113.004906 197.311935,113.023895 175.883820,113.042892 
	C173.214691,113.696960 170.545563,114.351028 167.099426,114.858414 
	C164.540634,114.474480 162.759857,114.040924 160.976913,114.031723 
	C149.040527,113.970047 137.103653,113.998756 125.166946,113.998138 
	C125.452576,111.928841 125.738197,109.859535 126.094727,107.394264 
z"/>
<path fill="#E85A2D" opacity="1.000000" stroke="none" 
	d="
M86.088165,308.416229 
	C87.161339,307.739655 88.370689,307.050690 89.581718,307.047729 
	C114.744072,306.986115 139.906616,306.997986 165.069107,307.023102 
	C165.873581,307.023895 166.677765,307.318451 167.766571,307.791321 
	C164.305710,311.069153 160.560333,314.031708 156.041962,316.958282 
	C153.160828,316.614868 151.054047,316.051910 148.944382,316.041016 
	C134.026764,315.963867 119.108231,315.947662 104.190887,316.046997 
	C101.420372,316.065460 98.653931,316.694641 95.885605,317.041992 
	C92.665443,314.269104 89.445282,311.496185 86.088165,308.416229 
z"/>
<path fill="#FAC505" opacity="1.000000" stroke="none" 
	d="
M175.924301,113.389984 
	C197.311935,113.023895 218.740067,113.004906 240.645111,112.975052 
	C242.420151,115.714424 243.718246,118.464645 244.591125,121.600334 
	C219.166641,121.990059 194.167404,121.994331 169.168152,121.998596 
	C171.433701,119.244759 173.699234,116.490929 175.924301,113.389984 
z"/>
<path fill="#EE832E" opacity="1.000000" stroke="none" 
	d="
M49.832581,221.003708 
	C53.479294,227.094543 57.126007,233.185379 60.628059,239.900101 
	C48.043648,240.683273 35.603897,240.842575 23.164146,241.001862 
	C22.214453,233.956161 23.763338,227.431717 28.054724,221.149811 
	C35.836594,220.990402 42.834587,220.997055 49.832581,221.003708 
z"/>
<path fill="#EF8A2E" opacity="1.000000" stroke="none" 
	d="
M225.054718,221.593124 
	C224.801437,222.084076 224.496063,222.336227 224.191635,222.335098 
	C209.118607,222.279297 194.045685,222.201797 178.569580,222.066284 
	C180.199783,217.112656 182.233109,212.219391 185.052200,207.154480 
	C193.263565,206.974060 200.689163,206.965286 208.114761,206.956497 
	C215.703003,209.399734 221.752609,213.662689 225.054718,221.593124 
z"/>
<path fill="#F9BD0B" opacity="1.000000" stroke="none" 
	d="
M248.900986,132.620728 
	C219.916443,132.999023 190.998688,132.999359 161.623520,132.999237 
	C162.886246,130.393326 164.606384,127.787865 166.922302,125.353409 
	C169.320312,125.682945 171.122375,125.977287 172.924805,125.979500 
	C197.561081,126.009811 222.197403,125.999763 246.833725,125.999641 
	C247.545074,128.080688 248.256424,130.161743 248.900986,132.620728 
z"/>
<path fill="#E8462C" opacity="1.000000" stroke="none" 
	d="
M145.106430,328.040924 
	C137.995148,335.625244 132.838028,344.308472 129.784988,354.302063 
	C129.330093,355.791077 127.248680,356.783173 125.919754,358.005157 
	C124.921013,356.637329 123.341682,355.394135 123.017067,353.881622 
	C120.790794,343.508484 114.447960,335.811096 107.427437,328.184204 
	C118.397873,327.473724 129.115707,327.186401 139.835464,327.054138 
	C141.588120,327.032501 143.349228,327.694763 145.106430,328.040924 
z"/>
<path fill="#E8532D" opacity="1.000000" stroke="none" 
	d="
M145.412766,327.887482 
	C143.349228,327.694763 141.588120,327.032501 139.835464,327.054138 
	C129.115707,327.186401 118.397873,327.473724 107.288010,327.876434 
	C103.319557,324.580963 99.742500,321.118439 96.025528,317.348938 
	C98.653931,316.694641 101.420372,316.065460 104.190887,316.046997 
	C119.108231,315.947662 134.026764,315.963867 148.944382,316.041016 
	C151.054047,316.051910 153.160828,316.614868 155.691803,316.982056 
	C152.649475,320.605865 149.184296,324.169952 145.412766,327.887482 
z"/>
<path fill="#F3A421" opacity="1.000000" stroke="none" 
	d="
M158.932922,166.426849 
	C188.563293,166.027847 218.241043,166.013428 248.376053,165.998093 
	C247.799286,168.248993 246.765259,170.500793 245.026978,172.731995 
	C243.202942,172.474731 242.083466,172.033295 240.963318,172.031555 
	C215.905731,171.992554 190.847946,171.972122 165.790787,172.081146 
	C164.385742,172.087250 162.985687,173.235855 161.583313,173.852692 
	C160.715637,171.505615 159.847977,169.158524 158.932922,166.426849 
z"/>
<path fill="#EC7C2E" opacity="1.000000" stroke="none" 
	d="
M23.097410,241.414307 
	C35.603897,240.842575 48.043648,240.683273 60.768944,240.209335 
	C65.488182,243.543884 69.921883,247.193085 74.661484,251.004120 
	C73.215736,251.443970 71.465431,251.952667 69.712227,251.962860 
	C57.580215,252.033340 45.447323,251.958420 33.315445,252.039352 
	C31.199362,252.053467 29.086720,252.583527 26.569256,252.937531 
	C25.120907,249.275421 24.075790,245.551086 23.097410,241.414307 
z"/>
<path fill="#F19A2A" opacity="1.000000" stroke="none" 
	d="
M88.780632,188.647003 
	C70.204651,189.000870 51.577156,188.947144 32.950638,189.058060 
	C30.187307,189.074509 27.428604,189.867569 24.112770,190.454865 
	C20.785505,188.294662 18.013235,185.980957 15.607188,183.270630 
	C18.087133,182.582672 20.199974,182.045563 22.314711,182.037994 
	C43.581238,181.961823 64.848076,181.972549 86.114830,181.958817 
	C86.986366,184.070114 87.857895,186.181427 88.780632,188.647003 
z"/>
<path fill="#F2A125" opacity="1.000000" stroke="none" 
	d="
M161.731140,174.119034 
	C162.985687,173.235855 164.385742,172.087250 165.790787,172.081146 
	C190.847946,171.972122 215.905731,171.992554 240.963318,172.031555 
	C242.083466,172.033295 243.202942,172.474731 244.713531,172.881165 
	C244.114273,174.497070 243.124222,175.943176 241.526764,177.694305 
	C215.241119,178.013611 189.562866,178.027924 163.884598,178.042236 
	C163.216049,176.823288 162.547501,175.604324 161.731140,174.119034 
z"/>
<path fill="#F3A421" opacity="1.000000" stroke="none" 
	d="
M5.937774,168.410736 
	C7.987927,167.698792 10.080785,167.051407 12.175608,167.044983 
	C35.756256,166.972687 59.337208,166.998886 83.375366,166.997711 
	C83.877670,168.714508 83.922684,170.432220 83.442581,172.574860 
	C60.135357,172.999878 37.353165,172.974121 14.571294,173.047699 
	C12.696042,173.053772 10.822970,173.734756 8.948885,174.102142 
	C7.959721,172.325760 6.970556,170.549362 5.937774,168.410736 
z"/>
<path fill="#F0932E" opacity="1.000000" stroke="none" 
	d="
M208.082626,206.599976 
	C200.689163,206.965286 193.263565,206.974060 185.361603,206.969635 
	C185.926453,200.939850 190.555161,200.180557 196.162720,199.762711 
	C194.049286,196.513657 192.150833,193.595093 190.667633,190.338013 
	C203.425949,190.013535 215.768997,190.027557 228.112045,190.041565 
	C221.817841,195.014572 215.520126,199.983139 209.236786,204.969849 
	C208.787460,205.326462 208.443466,205.815811 208.082626,206.599976 
z"/>
<path fill="#EF8A2E" opacity="1.000000" stroke="none" 
	d="
M61.153496,209.426392 
	C63.215900,208.406128 65.463539,207.160995 67.747330,207.090714 
	C79.320503,206.734619 90.903069,206.683640 102.768158,206.211365 
	C110.060631,209.815536 117.067291,213.734055 124.073952,217.652588 
	C102.649384,217.894226 81.700066,216.081650 61.153496,209.426392 
z"/>
<path fill="#F19A2A" opacity="1.000000" stroke="none" 
	d="
M228.459396,190.013779 
	C215.768997,190.027557 203.425949,190.013535 190.625641,189.998978 
	C187.420120,187.242294 184.497101,186.270218 180.568832,187.893188 
	C175.178299,190.120270 171.110565,186.966599 167.669861,183.342209 
	C191.094254,183.011993 214.106689,183.024612 237.119125,183.037231 
	C234.348328,185.353485 231.577530,187.669739 228.459396,190.013779 
z"/>
<path fill="#F2A125" opacity="1.000000" stroke="none" 
	d="
M8.978392,174.439453 
	C10.822970,173.734756 12.696042,173.053772 14.571294,173.047699 
	C37.353165,172.974121 60.135357,172.999878 83.374779,172.999664 
	C84.210632,174.415543 84.589180,175.831543 84.443100,177.623779 
	C62.003479,178.000000 40.088390,177.971573 18.173643,178.045807 
	C16.079536,178.052887 13.987597,178.700668 11.894651,179.050995 
	C10.932401,177.626266 9.970149,176.201508 8.978392,174.439453 
z"/>
<path fill="#F29D28" opacity="1.000000" stroke="none" 
	d="
M237.413055,182.907089 
	C214.106689,183.024612 191.094254,183.011993 167.624481,182.998718 
	C166.109375,181.570938 165.051590,180.143799 163.939209,178.379456 
	C189.562866,178.027924 215.241119,178.013611 241.376648,177.998627 
	C240.458267,179.590927 239.082626,181.183945 237.413055,182.907089 
z"/>
<path fill="#F9C009" opacity="1.000000" stroke="none" 
	d="
M65.167984,128.997818 
	C65.453728,125.282524 65.739471,121.567230 66.553314,117.425751 
	C77.093979,117.012947 87.106529,117.026329 97.119087,117.039711 
	C94.987961,121.256332 92.856827,125.472954 90.024002,129.700073 
	C81.270866,129.472977 73.219429,129.235397 65.167984,128.997818 
z"/>
<path fill="#F9C009" opacity="1.000000" stroke="none" 
	d="
M246.896210,125.665573 
	C222.197403,125.999763 197.561081,126.009811 172.924805,125.979500 
	C171.122375,125.977287 169.320312,125.682945 167.233505,125.209167 
	C167.602982,124.116096 168.257019,123.338272 169.039612,122.279518 
	C194.167404,121.994331 219.166641,121.990059 244.642639,121.975128 
	C245.732483,123.086807 246.345596,124.209160 246.896210,125.665573 
z"/>
<path fill="#FBC803" opacity="1.000000" stroke="none" 
	d="
M97.429108,116.896263 
	C87.106529,117.026329 77.093979,117.012947 66.623993,116.998970 
	C67.053360,114.223686 67.940147,111.448997 68.996857,108.337158 
	C80.165634,108.005554 91.164490,108.011108 102.639679,108.029564 
	C101.323723,110.945915 99.531425,113.849365 97.429108,116.896263 
z"/>
<path fill="#F29D28" opacity="1.000000" stroke="none" 
	d="
M12.027703,179.345642 
	C13.987597,178.700668 16.079536,178.052887 18.173643,178.045807 
	C40.088390,177.971573 62.003479,178.000000 84.375847,178.000153 
	C85.228470,179.083069 85.623718,180.165817 86.066902,181.603699 
	C64.848076,181.972549 43.581238,181.961823 22.314711,182.037994 
	C20.199974,182.045563 18.087133,182.582672 15.570299,182.935242 
	C14.165042,181.877747 13.162898,180.759018 12.027703,179.345642 
z"/>
<path fill="#EF8A2E" opacity="1.000000" stroke="none" 
	d="
M49.900436,220.588715 
	C42.834587,220.997055 35.836594,220.990402 28.362356,220.970840 
	C31.230135,212.131592 38.601173,209.319992 47.726860,207.996597 
	C48.473370,212.052185 49.220833,216.112961 49.900436,220.588715 
z"/>
<path fill="#FAC505" opacity="1.000000" stroke="none" 
	d="
M125.097260,114.410957 
	C137.103653,113.998756 149.040527,113.970047 160.976913,114.031723 
	C162.759857,114.040924 164.540634,114.474480 166.712952,114.881805 
	C163.212921,116.966614 159.322357,118.881325 154.662964,120.434967 
	C151.970825,119.716064 150.051880,119.079681 148.123459,119.049431 
	C140.472519,118.929436 132.818604,118.998901 125.165787,118.998154 
	C125.119713,117.606697 125.073639,116.215233 125.097260,114.410957 
z"/>
<path fill="#F9BD0B" opacity="1.000000" stroke="none" 
	d="
M65.098419,129.437805 
	C73.219429,129.235397 81.270866,129.472977 89.713074,129.880020 
	C89.312538,132.259186 88.521240,134.468887 86.944870,136.846893 
	C79.163071,137.008514 72.166321,137.001831 65.169579,136.995163 
	C65.122673,134.622696 65.075768,132.250244 65.098419,129.437805 
z"/>
<path fill="#F9C009" opacity="1.000000" stroke="none" 
	d="
M125.096329,119.411560 
	C132.818604,118.998901 140.472519,118.929436 148.123459,119.049431 
	C150.051880,119.079681 151.970825,119.716064 154.293671,120.374557 
	C152.376236,122.370705 150.059250,124.066193 146.952606,125.889404 
	C139.403290,126.025642 132.643646,126.034149 125.883987,126.042664 
	C125.598274,123.970093 125.312569,121.897530 125.096329,119.411560 
z"/>
<path fill="#F7B810" opacity="1.000000" stroke="none" 
	d="
M65.099350,137.435303 
	C72.166321,137.001831 79.163071,137.008514 86.635887,137.027817 
	C86.468407,139.464035 85.824860,141.887634 84.603600,144.592102 
	C77.740288,144.913925 71.454689,144.954865 65.169090,144.995819 
	C65.122437,142.622360 65.075783,140.248917 65.099350,137.435303 
z"/>
<path fill="#F6B314" opacity="1.000000" stroke="none" 
	d="
M65.234955,145.374847 
	C71.454689,144.954865 77.740288,144.913925 84.428337,144.933807 
	C84.550575,146.739822 84.270355,148.485031 83.454292,150.614380 
	C77.335236,150.997910 71.752037,150.997284 66.168831,150.996658 
	C65.879494,149.249054 65.590149,147.501465 65.234955,145.374847 
z"/>
<path fill="#F9BD0B" opacity="1.000000" stroke="none" 
	d="
M125.931366,126.442322 
	C132.643646,126.034149 139.403290,126.025642 146.639221,126.030357 
	C144.650696,128.286240 142.185898,130.528885 138.999420,132.848862 
	C134.479385,132.632355 130.681030,132.338516 126.882660,132.044678 
	C126.581360,130.310440 126.280052,128.576202 125.931366,126.442322 
z"/>
<path fill="#F5AF19" opacity="1.000000" stroke="none" 
	d="
M66.108543,151.368057 
	C71.752037,150.997284 77.335236,150.997910 83.374817,150.997559 
	C83.877464,152.388763 83.923744,153.780945 83.902420,155.586548 
	C78.582405,156.000092 73.330002,156.000214 67.621414,156.000061 
	C66.792915,154.579697 66.420586,153.159576 66.108543,151.368057 
z"/>
<path fill="#F7B810" opacity="1.000000" stroke="none" 
	d="
M126.930618,132.428284 
	C130.681030,132.338516 134.479385,132.632355 138.696350,132.985901 
	C136.834915,136.985748 136.834915,136.985748 128.719177,138.536560 
	C128.151611,136.669922 127.565094,134.740906 126.930618,132.428284 
z"/>
<path fill="#FEDF0E" opacity="1.000000" stroke="none" 
	d="
M163.114166,23.957130 
	C164.067413,29.011150 165.020676,34.065170 165.446014,39.560238 
	C146.573685,40.014015 128.229263,40.026741 109.884827,40.039471 
	C101.593803,34.465988 93.493225,34.482880 85.996094,41.351818 
	C80.997849,35.075764 82.473869,27.819111 89.881264,23.264065 
	C91.818291,23.683153 93.116875,23.978855 94.415649,23.979643 
	C117.315140,23.993521 140.214661,23.971434 163.114166,23.957130 
z"/>
<path fill="#FBCD01" opacity="1.000000" stroke="none" 
	d="
M62.834206,78.003403 
	C61.788185,85.213081 60.774998,92.427750 59.681099,99.630157 
	C59.196465,102.821091 58.548561,105.987228 57.446941,109.581795 
	C43.300205,109.999306 29.681053,110.038315 16.062710,109.951202 
	C14.355100,109.940277 12.651746,109.263855 10.946421,108.895790 
	C14.561279,100.276451 20.567501,93.451096 27.380993,87.286194 
	C31.248262,83.787048 35.342567,80.538826 39.926498,77.350418 
	C47.956978,77.683296 55.395588,77.843346 62.834206,78.003403 
z"/>
<path fill="#FED809" opacity="1.000000" stroke="none" 
	d="
M109.934525,40.447643 
	C128.229263,40.026741 146.573685,40.014015 165.375488,40.002518 
	C165.879730,44.031769 165.926590,48.059784 165.901978,52.546623 
	C146.500687,52.998260 127.170853,52.991077 107.364960,52.971027 
	C107.920677,48.924046 108.952454,44.889931 109.934525,40.447643 
z"/>
<path fill="#FFE711" opacity="1.000000" stroke="none" 
	d="
M163.067764,23.579725 
	C140.214661,23.971434 117.315140,23.993521 94.415649,23.979643 
	C93.116875,23.978855 91.818291,23.683153 90.235580,23.209030 
	C94.722275,19.342558 99.493011,15.791766 104.571426,12.101797 
	C122.005424,11.975859 139.131744,11.989096 156.689529,11.982628 
	C159.087799,15.709389 161.054581,19.455854 163.067764,23.579725 
z"/>
<path fill="#FAC505" opacity="1.000000" stroke="none" 
	d="
M10.630894,109.070091 
	C12.651746,109.263855 14.355100,109.940277 16.062710,109.951202 
	C29.681053,110.038315 43.300205,109.999306 57.376663,109.997993 
	C57.545883,114.035507 57.257542,118.073990 56.443775,122.555542 
	C39.001213,122.998489 22.084078,122.998375 5.166940,122.998260 
	C6.883082,118.413635 8.599225,113.829018 10.630894,109.070091 
z"/>
<path fill="#F9BD0B" opacity="1.000000" stroke="none" 
	d="
M4.987238,123.346634 
	C22.084078,122.998375 39.001213,122.998489 56.375816,122.997421 
	C56.894600,126.348396 56.955917,129.700562 57.066025,133.506027 
	C39.103802,133.972672 21.092794,133.986008 2.624455,133.998825 
	C3.047260,130.563873 3.927398,127.129440 4.987238,123.346634 
z"/>
<path fill="#FDD204" opacity="1.000000" stroke="none" 
	d="
M62.917538,77.608109 
	C55.395588,77.843346 47.956978,77.683296 40.234459,77.207489 
	C49.287594,69.119301 58.624626,61.346848 67.961655,53.574398 
	C68.345955,53.893574 68.730255,54.212749 69.114548,54.531925 
	C67.076660,62.092228 65.038765,69.652527 62.917538,77.608109 
z"/>
<path fill="#FDD204" opacity="1.000000" stroke="none" 
	d="
M217.053009,69.570389 
	C204.575241,69.972504 192.038895,70.012001 179.502838,69.968597 
	C177.894348,69.963028 176.287354,69.526443 174.289322,69.119377 
	C177.359787,65.375092 180.820587,61.800968 185.005859,58.151241 
	C187.665710,58.383541 189.597672,58.929462 191.537048,58.957134 
	C198.968903,59.063171 206.403122,59.002781 213.836456,59.004505 
	C214.889145,62.397060 215.941833,65.789612 217.053009,69.570389 
z"/>
<path fill="#FED809" opacity="1.000000" stroke="none" 
	d="
M213.907440,58.541382 
	C206.403122,59.002781 198.968903,59.063171 191.537048,58.957134 
	C189.597672,58.929462 187.665710,58.383541 185.307404,58.014694 
	C190.682114,52.380707 196.479767,46.807667 202.998260,41.153603 
	C207.188538,41.392811 210.657944,41.713039 214.127350,42.033264 
	C214.077698,47.381596 214.028061,52.729923 213.907440,58.541382 
z"/>
<path fill="#FEDF0E" opacity="1.000000" stroke="none" 
	d="
M214.456329,41.814796 
	C210.657944,41.713039 207.188538,41.392811 203.302582,41.013161 
	C206.033142,38.384563 209.180252,35.815388 212.327362,33.246208 
	C212.885345,33.487858 213.443314,33.729507 214.001282,33.971161 
	C214.262619,36.512882 214.523956,39.054607 214.456329,41.814796 
z"/>
<path fill="#FFFFFF" opacity="1.000000" stroke="none" 
	d="
M156.468048,85.493614 
	C156.164658,85.969681 155.695221,86.240540 155.225784,86.511398 
	C155.276657,86.063683 155.327530,85.615967 155.647003,85.048462 
	C156.044418,85.048576 156.173218,85.168495 156.468048,85.493614 
z"/>
</svg>
